<?xml version="1.0" encoding="utf-8"?>
<!-- Generator: Adobe Illustrator 19.0.0, SVG Export Plug-In . SVG Version: 6.00 Build 0)  -->
<svg version="1.1" id="layer" xmlns="http://www.w3.org/2000/svg" xmlns:xlink="http://www.w3.org/1999/xlink" x="0px" y="0px"
	 viewBox="-153 -46 652 652" style="enable-background:new -153 -46 652 652;" xml:space="preserve">
<style type="text/css">
	.st0{fill:#EC1C24;}
</style>
<path d="M467.9,314.6H334.8c-19.3,0-33.9-7.1-33.9-24.8v-28.2c0-18.1,11.9-26.1,34.8-26.1H468v11.1H335.8
	c-12.3,0-21.7,3.4-21.7,15.3V289c0,9.3,7.6,14.6,20.2,14.6h133.5L467.9,314.6z M264.8,251.3v63.3h-13.7v-56.3
	C251.1,258.3,264.8,251.3,264.8,251.3z M69.1,251.3v63.3h13.7v-56.3C82.8,258.3,69.1,251.3,69.1,251.3z M69.1,235.6h12.3l85.6,45.9
	l87.8-45.9h10v6.6L175,289.3c-5.6,3-20.7-1.3-20.7-1.3l-85.2-44.9V235.6z M33.6,264c0,12-11.7,18-25.3,18h-126.6v32.6H-132v-43.4H9
	c7.5,0,11.4-2.5,11.3-8.7V255c0-6.6-3.5-8.2-11.2-8.2h-141v-11.3H10.4c12.7,0,23.2,4.3,23.2,15.8V264z"/>
<path class="st0" d="M264.8,242.1v-6.6h-10.1L154.3,288l2.3,1.2c5.8,3,12.7,3,18.5,0l2.5-1.3L264.8,242.1z"/>
</svg>
